<svg>

<symbol id="basket" width="45" height="45" viewBox="0 0 45 45" xmlns="http://www.w3.org/2000/svg">
<path d="M41.3978 15.75H30.132L26.055 19.827C25.5549 20.3294 24.9601 20.7276 24.3051 20.9987C23.6501 21.2699 22.9479 21.4084 22.239 21.4065C20.7945 21.4065 19.44 20.844 18.4185 19.8248C17.9163 19.3248 17.518 18.7305 17.2465 18.0759C16.975 17.4214 16.8358 16.7196 16.8367 16.011C16.8367 15.9233 16.8592 15.8378 16.8615 15.75H3.6C3.24196 15.75 2.89858 15.8922 2.64541 16.1454C2.39223 16.3986 2.25 16.742 2.25 17.1V22.5H42.75V17.1C42.75 16.9225 42.715 16.7468 42.647 16.5829C42.579 16.4189 42.4794 16.27 42.3538 16.1446C42.2282 16.0192 42.0791 15.9198 41.9151 15.8521C41.751 15.7844 41.5752 15.7497 41.3978 15.75V15.75ZM24.228 17.9978L35.6017 6.62401C35.7276 6.49892 35.8275 6.35027 35.8958 6.18654C35.9641 6.02281 35.9995 5.84723 35.9999 5.66981C36.0004 5.4924 35.9658 5.31665 35.8982 5.1526C35.8307 4.98855 35.7315 4.83943 35.6062 4.71376L33.5362 2.64376C33.2821 2.39122 32.9383 2.24948 32.58 2.24948C32.2217 2.24948 31.8779 2.39122 31.6238 2.64376L20.25 14.0198C19.7225 14.5473 19.4261 15.2627 19.4261 16.0088C19.4261 16.7548 19.7225 17.4702 20.25 17.9978C20.7775 18.5253 21.493 18.8216 22.239 18.8216C22.985 18.8216 23.7005 18.5253 24.228 17.9978V17.9978ZM8.60175 38.8598C8.82 39.762 9.7605 40.5 10.6875 40.5H34.3125C35.2395 40.5 36.18 39.762 36.3983 38.8598L39.825 24.75H5.175L8.60175 38.8598V38.8598Z"/>
</symbol>

</svg>